<?xml version="1.0" encoding="UTF-8"?> <svg xmlns="http://www.w3.org/2000/svg" xmlns:xlink="http://www.w3.org/1999/xlink" width="425px" height="425px" viewBox="0 0 425 425" version="1.1"><title>rs_logomark_black</title><g id="rs_logomark_black" stroke="none" stroke-width="1" fill="none" fill-rule="evenodd"><g id="rockstart_logomark_black" transform="translate(13.000000, 1.000000)" fill="#000000" fill-rule="nonzero"><path d="M258.978887,182.357006 C270.909789,182.357006 281.658349,179.96929 291.224568,175.193858 C300.513707,170.651673 308.340102,163.591425 313.8119,154.817658 C319.319258,145.988484 322.072937,135.605886 322.072937,123.669866 C322.072937,112.102367 319.319258,101.773512 313.8119,92.6833013 C308.372581,83.658382 300.495086,76.3530706 291.086372,71.6084453 C281.448496,66.6487524 270.753679,64.168906 259.001919,64.168906 L139.646833,64.168906 L106.68714,-4.36417803e-14 L268.614203,-4.36417803e-14 C291.017274,-4.36417803e-14 311.582853,5.50735765 330.31094,16.5220729 C348.797872,27.2953902 364.136024,42.7288427 374.794626,61.2821497 C385.677055,79.9609407 391.333488,101.223613 391.170825,122.840691 C391.170825,141.389635 387.452335,158.605246 380.015355,174.487524 C372.78445,190.095612 362.260696,203.953547 349.166987,215.109405 C336.085191,226.291916 320.71283,234.473387 304.130518,239.078695 L400,423.06334 L323.431862,423.06334 L200.099808,182.357006 L258.978887,182.357006 Z" id="Path"></path><polygon id="Path" points="60.4606526 182.333973 0 300.49904 76.5681382 300.49904 137.028791 182.333973 76.5681382 64.168906 0 64.168906"></polygon></g></g></svg> 